<?xml version="1.0" encoding="utf-8"?>
<!-- Generator: Adobe Illustrator 25.2.1, SVG Export Plug-In . SVG Version: 6.00 Build 0)  -->
<svg version="1.1" id="Layer_1" xmlns="http://www.w3.org/2000/svg" xmlns:xlink="http://www.w3.org/1999/xlink" x="0px" y="0px"
	 viewBox="0 0 81 80" style="enable-background:new 0 0 81 80;" xml:space="preserve">
<style type="text/css">
	.st0{filter:url(#Adobe_OpacityMaskFilter);}
	.st1{mask:url(#SVGID_1_);}
</style>
<defs>
	<filter id="Adobe_OpacityMaskFilter" filterUnits="userSpaceOnUse" x="8" y="8" width="64" height="64">
		
			<feColorMatrix  type="matrix" values="-1 0 0 0 1  0 -1 0 0 1  0 0 -1 0 1  0 0 0 1 0" color-interpolation-filters="sRGB" result="source"/>
		<feFlood  style="flood-color:white;flood-opacity:1" result="back"/>
		<feBlend  in="source" in2="back" mode="normal"/>
	</filter>
</defs>
<mask maskUnits="userSpaceOnUse" x="8" y="8" width="64" height="64" id="SVGID_1_">
	<g class="st0">
	</g>
</mask>
<g class="st1">
	<defs>
		<polygon id="SVGID_2_" points="8,18.2 8.2,16.3 9.2,15.2 10,14.7 10.3,14.1 10.3,12.8 10.4,11.9 10.6,10.8 11.4,9.6 12.3,8.9 
			13.2,8.4 13.8,8.2 14.4,8 15.1,8 15.7,8 16.2,8 16.9,8.1 17.5,8.2 18.1,8.5 18.7,8.9 19.4,9.3 20,9.8 20.6,10.4 21.2,11 
			21.8,11.6 22.3,12.2 22.9,12.9 23.4,13.5 23.8,14.1 24.2,14.8 24.7,15.5 25.2,16.3 25.7,17 26.3,17.8 26.9,18.6 27.5,19.4 
			28.2,20.4 29,21.3 29.7,22.3 30.6,23.3 31.5,24.3 32.4,25.3 33.4,26.2 34.2,27.2 35.4,28.6 41.7,33.7 45.8,39.3 50.5,44.8 
			53.4,48.5 58.4,51.1 60.3,55.3 69.9,62.8 71,63.6 69.8,64.3 69.8,65.2 66.6,64.3 69.9,66.6 72,69.4 67.5,69.4 61.1,66.2 52,63.5 
			45,64.2 43.4,62.8 42.5,63.9 35.7,62.8 33.5,66.9 33.2,68.5 35.6,69.4 36.5,69.4 37.2,70.1 37.1,70.6 34.5,70.6 34.8,70.7 
			34.8,70.9 31.8,70.9 31.6,70.3 30.4,70.2 29.7,71.6 27.9,71.6 27.8,72 26.2,72 26.1,71.6 20.6,71.6 20.6,71.3 19.4,71.4 
			19.4,71.6 19.1,71.6 19,71.1 19.9,70.5 20.9,70.5 20.9,70.2 21.6,70.1 21.5,69.8 22.6,68.9 28.3,68.9 30.2,64.9 30.1,63.8 
			29.2,61.2 20.4,53.9 19.3,52.6 18.3,51.5 17.4,50 16.5,48.5 15.9,46.9 14.9,45.1 14.1,43.2 13.4,41.1 12.7,39.2 12.2,37.5 
			11.9,36.2 11.9,28.3 12.1,27.3 12.4,25.6 12.7,24 12.9,22.8 13.1,21.1 13.4,20.3 13.4,18.6 12.3,17.4 10,17.3 		"/>
	</defs>
	<use xlink:href="#SVGID_2_"  style="overflow:visible;fill:#AFB1B3;"/>
	<clipPath id="SVGID_3_">
		<use xlink:href="#SVGID_2_"  style="overflow:visible;"/>
	</clipPath>
</g>
</svg>
